<svg xmlns="http://www.w3.org/2000/svg" viewBox="0 0 512 512"><defs><style>.\38 aac062a-fb84-4657-bc57-823759729086{fill:#444;}.b43b8986-8e3c-44c1-9a8a-594b14107fba{fill:#c33;}</style></defs><title>Untitled-1</title><g id="e459a4fd-c2a8-4c4b-9c4e-d2b49e4c6c53" data-name="logo"><path class="8aac062a-fb84-4657-bc57-823759729086" d="M235.88,254.42h27.69a40.77,40.77,0,0,0,15-2.45,29.58,29.58,0,0,0,10-6.29,23.54,23.54,0,0,0,5.62-8.46,25.67,25.67,0,0,0,1.74-9.06q0-12.34-8.19-19.14t-25-6.8H235.88Zm0,1.58v53.79H267A54.06,54.06,0,0,0,281.36,308a30.06,30.06,0,0,0,10.72-5.18,22.18,22.18,0,0,0,6.68-8.62,29.35,29.35,0,0,0,2.29-12,23.59,23.59,0,0,0-9.21-19.18,31.16,31.16,0,0,0-10.68-5.26,50.17,50.17,0,0,0-14-1.82Zm.59,55.38H267a55.7,55.7,0,0,0,15.15-1.9,32,32,0,0,0,11.31-5.58,23.72,23.72,0,0,0,7-9.14A30.55,30.55,0,0,0,303,282.27a26.37,26.37,0,0,0-2.14-10.76,24,24,0,0,0-6.13-8.35,30.34,30.34,0,0,0-9.65-5.61,47,47,0,0,0-12.7-2.65,28,28,0,0,0,10.13-3,29,29,0,0,0,8-6.05,28.44,28.44,0,0,0,5.3-8.23,24.15,24.15,0,0,0,1.93-9.49q0-13.36-8.66-20.45t-26.3-7.08h-26.3l-2.45.11h0V311.27Z"/><path class="b43b8986-8e3c-44c1-9a8a-594b14107fba" d="M209,226.47v59.06c0,14.27,12.09,25.84,27,25.84V200.63C221.13,200.63,209,212.2,209,226.47Z"/></g></svg>